<svg width="350" height="37" viewBox="0 0 350 37" fill="none" xmlns="http://www.w3.org/2000/svg">
<path d="M116.47 17.692H109.927V14.326H116.884V12.4H107.893V25H109.927V19.618H116.47V17.692ZM120.765 16.378H118.875V25H120.765V16.378ZM119.811 12.067C119.064 12.067 118.497 12.652 118.497 13.399C118.497 14.146 119.064 14.713 119.811 14.713C120.558 14.713 121.143 14.146 121.143 13.399C121.143 12.652 120.558 12.067 119.811 12.067ZM125.265 12.04H123.375V25H125.265V12.04ZM133.753 16.378H130.45V13.768H128.56V16.378H126.841V18.088H128.56V21.877C128.56 24.172 129.703 25.225 131.656 25.225C132.736 25.225 133.609 24.838 134.302 24.37L133.555 22.867C133.042 23.191 132.403 23.452 131.818 23.452C131.062 23.452 130.45 23.002 130.45 21.841V18.088H133.753V16.378ZM139.389 16.153C136.851 16.153 135.096 17.989 135.096 20.689C135.096 23.425 136.923 25.225 139.506 25.225C140.811 25.225 141.999 24.91 143.052 24.01L142.116 22.669C141.405 23.236 140.487 23.578 139.623 23.578C138.399 23.578 137.31 22.93 137.058 21.382H143.43C143.448 21.166 143.466 20.923 143.466 20.68C143.457 17.989 141.801 16.153 139.389 16.153ZM139.353 17.827C140.55 17.827 141.333 18.61 141.54 19.951H137.067C137.265 18.691 138.012 17.827 139.353 17.827ZM149.82 16.153C148.767 16.153 147.885 16.531 147.318 17.35V16.378H145.455V25H147.336V20.257C147.336 18.79 148.191 17.944 149.388 17.944C149.847 17.944 150.423 18.052 150.819 18.259L151.269 16.396C150.837 16.225 150.396 16.153 149.82 16.153ZM161.213 16.153C158.549 16.153 156.578 18.106 156.578 20.689C156.578 23.272 158.549 25.225 161.213 25.225C163.877 25.225 165.857 23.272 165.857 20.689C165.857 18.106 163.877 16.153 161.213 16.153ZM161.213 17.926C162.752 17.926 163.922 19.06 163.922 20.689C163.922 22.318 162.752 23.452 161.213 23.452C159.674 23.452 158.513 22.318 158.513 20.689C158.513 19.06 159.674 17.926 161.213 17.926ZM172.433 16.153C171.209 16.153 170.327 16.648 169.733 17.404V16.378H167.852V28.6H169.733V23.974C170.327 24.73 171.209 25.225 172.433 25.225C174.845 25.225 176.744 23.326 176.744 20.689C176.744 18.052 174.845 16.153 172.433 16.153ZM172.208 17.926C173.828 17.926 174.809 19.177 174.809 20.689C174.809 22.201 173.828 23.452 172.208 23.452C170.651 23.452 169.607 22.264 169.607 20.689C169.607 19.114 170.651 17.926 172.208 17.926ZM184.523 16.378H181.22V13.768H179.33V16.378H177.611V18.088H179.33V21.877C179.33 24.172 180.473 25.225 182.426 25.225C183.506 25.225 184.379 24.838 185.072 24.37L184.325 22.867C183.812 23.191 183.173 23.452 182.588 23.452C181.832 23.452 181.22 23.002 181.22 21.841V18.088H184.523V16.378ZM188.376 16.378H186.486V25H188.376V16.378ZM187.422 12.067C186.675 12.067 186.108 12.652 186.108 13.399C186.108 14.146 186.675 14.713 187.422 14.713C188.169 14.713 188.754 14.146 188.754 13.399C188.754 12.652 188.169 12.067 187.422 12.067ZM195.001 16.153C192.337 16.153 190.366 18.106 190.366 20.689C190.366 23.272 192.337 25.225 195.001 25.225C197.665 25.225 199.645 23.272 199.645 20.689C199.645 18.106 197.665 16.153 195.001 16.153ZM195.001 17.926C196.54 17.926 197.71 19.06 197.71 20.689C197.71 22.318 196.54 23.452 195.001 23.452C193.462 23.452 192.301 22.318 192.301 20.689C192.301 19.06 193.462 17.926 195.001 17.926ZM206.158 16.153C205.276 16.153 204.205 16.414 203.512 17.431V16.378H201.64V25H203.53V20.221C203.53 18.745 204.547 17.944 205.762 17.944C207.022 17.944 207.769 18.754 207.769 20.203V25H209.659V19.582C209.659 17.566 208.21 16.153 206.158 16.153ZM218.865 17.071C217.974 16.495 216.723 16.162 215.373 16.162C213.177 16.162 211.809 17.215 211.809 18.925C211.809 20.311 212.826 21.193 214.734 21.454L215.634 21.571C216.66 21.715 217.128 22.039 217.128 22.525C217.128 23.173 216.453 23.578 215.166 23.578C213.762 23.578 212.943 23.173 212.322 22.696L211.449 24.109C212.709 25.045 214.257 25.216 215.148 25.216C217.632 25.216 219.072 24.055 219.072 22.399C219.072 20.923 217.956 20.122 216.075 19.852L215.184 19.717C214.392 19.6 213.762 19.429 213.762 18.826C213.762 18.214 214.365 17.8 215.391 17.8C216.462 17.8 217.533 18.214 218.055 18.538L218.865 17.071Z" fill="#010035"/>
<rect x="264" width="86" height="37" rx="10" fill="#FF6E4E"/>
<rect width="37" height="37" rx="10" fill="#010035"/>
<path d="M287.095 12.4V25H292.099C296.041 25 298.642 22.498 298.642 18.7C298.642 14.902 296.041 12.4 292.099 12.4H287.095ZM292.099 14.326C295.06 14.326 296.509 16.135 296.509 18.7C296.509 21.238 295.06 23.074 292.099 23.074H289.129V14.326H292.099ZM304.832 16.153C302.168 16.153 300.197 18.106 300.197 20.689C300.197 23.272 302.168 25.225 304.832 25.225C307.496 25.225 309.476 23.272 309.476 20.689C309.476 18.106 307.496 16.153 304.832 16.153ZM304.832 17.926C306.371 17.926 307.541 19.06 307.541 20.689C307.541 22.318 306.371 23.452 304.832 23.452C303.293 23.452 302.132 22.318 302.132 20.689C302.132 19.06 303.293 17.926 304.832 17.926ZM315.989 16.153C315.107 16.153 314.036 16.414 313.343 17.431V16.378H311.471V25H313.361V20.221C313.361 18.745 314.378 17.944 315.593 17.944C316.853 17.944 317.6 18.754 317.6 20.203V25H319.49V19.582C319.49 17.566 318.041 16.153 315.989 16.153ZM325.691 16.153C323.153 16.153 321.398 17.989 321.398 20.689C321.398 23.425 323.225 25.225 325.808 25.225C327.113 25.225 328.301 24.91 329.354 24.01L328.418 22.669C327.707 23.236 326.789 23.578 325.925 23.578C324.701 23.578 323.612 22.93 323.36 21.382H329.732C329.75 21.166 329.768 20.923 329.768 20.68C329.759 17.989 328.103 16.153 325.691 16.153ZM325.655 17.827C326.852 17.827 327.635 18.61 327.842 19.951H323.369C323.567 18.691 324.314 17.827 325.655 17.827Z" fill="white"/>
<line x1="14.4142" y1="13" x2="23" y2="21.5858" stroke="white" stroke-width="2" stroke-linecap="round" stroke-linejoin="round"/>
<line x1="14.4142" y1="13" x2="23" y2="21.5858" stroke="white" stroke-width="2" stroke-linecap="round" stroke-linejoin="round"/>
<line x1="14.4142" y1="13" x2="23" y2="21.5858" stroke="white" stroke-width="2" stroke-linecap="round" stroke-linejoin="round"/>
<line x1="14" y1="21.5858" x2="22.5858" y2="13" stroke="white" stroke-width="2" stroke-linecap="round" stroke-linejoin="round"/>
<line x1="14" y1="21.5858" x2="22.5858" y2="13" stroke="white" stroke-width="2" stroke-linecap="round" stroke-linejoin="round"/>
<line x1="14" y1="21.5858" x2="22.5858" y2="13" stroke="white" stroke-width="2" stroke-linecap="round" stroke-linejoin="round"/>
</svg>
